<?xml version="1.0" encoding="utf-8"?>
<!-- Generator: Adobe Illustrator 17.0.0, SVG Export Plug-In . SVG Version: 6.00 Build 0)  -->
<!DOCTYPE svg PUBLIC "-//W3C//DTD SVG 1.1//EN" "http://www.w3.org/Graphics/SVG/1.1/DTD/svg11.dtd">
<svg version="1.1" xmlns="http://www.w3.org/2000/svg" xmlns:xlink="http://www.w3.org/1999/xlink" x="0px" y="0px" width="100px"
	 height="100px" viewBox="0 0 100 100" enable-background="new 0 0 100 100" xml:space="preserve">
<g id="Layer_2">
</g>
<g id="Layer_1">
	<rect x="90" y="45" opacity="0.5" width="5" height="5"/>
	<rect x="85" y="45" opacity="0.5" width="5" height="5"/>
	<rect x="80" y="45" opacity="0.5" width="5" height="5"/>
	<rect x="75" y="45" opacity="0.5" width="5" height="5"/>
	<rect x="70" y="45" opacity="0.5" width="5" height="5"/>
	<rect x="65" y="45" opacity="0.5" width="5" height="5"/>
	<rect x="60" y="45" opacity="0.5" width="5" height="5"/>
	<rect x="55" y="45" opacity="0.5" width="5" height="5"/>
	<rect x="50" y="85" opacity="0.5" width="5" height="5"/>
	<rect x="50" y="80" opacity="0.5" width="5" height="5"/>
	<rect x="50" y="70" opacity="0.5" width="5" height="5"/>
	<rect x="50" y="75" opacity="0.5" width="5" height="5"/>
	<rect x="50" y="65" opacity="0.5" width="5" height="5"/>
	<rect x="50" y="55" opacity="0.5" width="5" height="5"/>
	<rect x="50" y="60" opacity="0.5" width="5" height="5"/>
	<rect x="50" y="40" opacity="0.5" width="5" height="5"/>
	<rect x="50" y="30" opacity="0.5" width="5" height="5"/>
	<rect x="50" y="35" opacity="0.5" width="5" height="5"/>
	<rect x="50" y="50" opacity="0.5" width="5" height="5"/>
	<rect x="50" y="45" opacity="0.5" width="5" height="5"/>
	<rect x="50" y="25" opacity="0.5" width="5" height="5"/>
	<rect x="50" y="15" opacity="0.5" width="5" height="5"/>
	<rect x="50" y="20" opacity="0.5" width="5" height="5"/>
	<rect x="50" y="10" opacity="0.5" width="5" height="5"/>
	<rect x="50" y="5" opacity="0.5" width="5" height="5"/>
	<rect x="45" y="45" opacity="0.5" width="5" height="5"/>
	<rect x="40" y="45" opacity="0.5" width="5" height="5"/>
	<rect x="35" y="45" opacity="0.5" width="5" height="5"/>
	<rect x="30" y="45" opacity="0.5" width="5" height="5"/>
	<rect x="25" y="45" opacity="0.5" width="5" height="5"/>
	<rect x="20" y="45" opacity="0.5" width="5" height="5"/>
	<rect x="15" y="45" opacity="0.5" width="5" height="5"/>
	<rect x="10" y="45" opacity="0.5" width="5" height="5"/>
</g>
</svg>
