
<svg version="1.1" id="Layer_1" xmlns="http://www.w3.org/2000/svg" xmlns:xlink="http://www.w3.org/1999/xlink" x="0px" y="0px"
	 width="100px" height="100px" viewBox="0 0 100 100" enable-background="new 0 0 100 100" xml:space="preserve">
<rect x="45" y="85" width="5" height="5"/>
<rect x="55" y="85" width="5" height="5"/>
<rect x="50" y="85" width="5" height="5"/>
<rect x="60" y="85" width="5" height="5"/>
<rect x="65" y="85" width="5" height="5"/>
<rect x="40" y="80" width="5" height="5"/>
<rect x="35" y="80" width="5" height="5"/>
<rect x="70" y="80" width="5" height="5"/>
<rect x="25" y="75" width="5" height="5"/>
<rect x="20" y="75" width="5" height="5"/>
<rect x="30" y="75" width="5" height="5"/>
<rect x="70" y="75" width="5" height="5"/>
<rect x="65" y="75" width="5" height="5"/>
<rect x="20" y="70" width="5" height="5"/>
<rect x="40" y="70" width="5" height="5"/>
<rect x="35" y="70" width="5" height="5"/>
<rect x="45" y="70" width="5" height="5"/>
<rect x="50" y="70" width="5" height="5"/>
<rect x="75" y="70" width="5" height="5"/>
<rect x="25" y="65" width="5" height="5"/>
<rect x="70" y="65" width="5" height="5"/>
<rect x="75" y="65" width="5" height="5"/>
<rect x="65" y="65" width="5" height="5"/>
<rect x="20" y="60" width="5" height="5"/>
<rect x="40" y="60" width="5" height="5"/>
<rect x="35" y="60" width="5" height="5"/>
<rect x="45" y="60" width="5" height="5"/>
<rect x="50" y="60" width="5" height="5"/>
<rect x="75" y="60" width="5" height="5"/>
<rect x="20" y="55" width="5" height="5"/>
<rect x="75" y="55" width="5" height="5"/>
<rect x="20" y="50" width="5" height="5"/>
<rect x="40" y="50" width="5" height="5"/>
<rect x="35" y="50" width="5" height="5"/>
<rect x="45" y="50" width="5" height="5"/>
<rect x="50" y="50" width="5" height="5"/>
<rect x="70" y="50" width="5" height="5"/>
<rect x="75" y="50" width="5" height="5"/>
<rect x="65" y="50" width="5" height="5"/>
<rect x="20" y="45" width="5" height="5"/>
<rect x="75" y="45" width="5" height="5"/>
<rect x="25" y="40" width="5" height="5"/>
<rect x="20" y="40" width="5" height="5"/>
<rect x="75" y="40" width="5" height="5"/>
<rect x="30" y="35" width="5" height="5"/>
<rect x="55" y="35" width="5" height="5"/>
<rect x="70" y="35" width="5" height="5"/>
<rect x="60" y="35" width="5" height="5"/>
<rect x="65" y="35" width="5" height="5"/>
<rect x="35" y="30" width="5" height="5"/>
<rect x="60" y="30" width="5" height="5"/>
<rect x="40" y="25" width="5" height="5"/>
<rect x="45" y="25" width="5" height="5"/>
<rect x="65" y="25" width="5" height="5"/>
<rect x="50" y="15" width="5" height="5"/>
<rect x="65" y="15" width="5" height="5"/>
<rect x="65" y="20" width="5" height="5"/>
<rect x="50" y="20" width="5" height="5"/>
<rect x="55" y="10" width="5" height="5"/>
<rect x="60" y="10" width="5" height="5"/>
</svg>
