<?xml version="1.0" encoding="utf-8"?>
<!-- Generator: Adobe Illustrator 17.0.0, SVG Export Plug-In . SVG Version: 6.00 Build 0)  -->
<!DOCTYPE svg PUBLIC "-//W3C//DTD SVG 1.1//EN" "http://www.w3.org/Graphics/SVG/1.1/DTD/svg11.dtd">
<svg version="1.1" xmlns="http://www.w3.org/2000/svg" xmlns:xlink="http://www.w3.org/1999/xlink" x="0px" y="0px" width="100px"
	 height="100px" viewBox="0 0 100 100" enable-background="new 0 0 100 100" xml:space="preserve">
<g id="Layer_2" display="none">
	<g display="inline" opacity="0.5">
		<rect x="24.82" y="65.421" width="5.037" height="9.834"/>
		<polygon points="34.59,55.588 34.59,60.37 39.627,60.37 39.627,20.071 34.59,20.071 34.59,50.549 29.552,50.549 29.552,55.588 		
			"/>
		<rect x="19.721" y="60.384" width="5.101" height="5.038"/>
		<rect x="14.68" y="50.549" width="5.039" height="9.835"/>
		<rect x="59.938" y="60.84" width="5.038" height="19.683"/>
		<polygon points="55.061,39.813 64.624,39.813 64.624,49.648 69.661,49.648 69.661,39.813 75.129,39.813 75.129,34.776 
			55.061,34.776 55.061,20.067 50.024,20.067 50.024,49.646 55.061,49.646 		"/>
		<rect x="39.628" y="15.036" width="10.375" height="5.037"/>
		<rect x="50.024" y="60.84" width="5.038" height="19.683"/>
		<rect x="19.721" y="45.512" width="9.831" height="5.037"/>
		<rect x="69.852" y="60.84" width="5.038" height="19.683"/>
		<polygon points="75.131,39.813 75.131,49.648 80.166,49.648 80.166,44.851 84.963,44.851 84.963,39.813 		"/>
		<rect x="79.928" y="70.689" width="5.037" height="9.834"/>
		<rect x="84.963" y="44.851" width="5.037" height="25.837"/>
		<polygon points="74.89,89.963 70.093,89.963 70.093,95 79.928,95 79.928,80.523 74.89,80.523 		"/>
		<polygon points="44.925,85.165 39.886,85.165 39.886,89.963 39.886,95 64.992,95 64.992,89.963 44.925,89.963 		"/>
		<polygon points="34.959,80.129 34.959,75.255 29.857,75.255 29.857,80.293 34.785,80.293 34.785,85.165 39.886,85.165 
			39.886,80.129 		"/>
		<rect x="64.992" y="84.926" width="5.102" height="5.038"/>
	</g>
</g>
<g id="Layer_1">
	<rect x="85" y="40" opacity="0.5" width="5" height="5"/>
	<rect x="85" y="30" opacity="0.5" width="5" height="5"/>
	<rect x="85" y="35" opacity="0.5" width="5" height="5"/>
	<rect x="85" y="45" opacity="0.5" width="5" height="5"/>
	<rect x="80" y="55" opacity="0.5" width="5" height="5"/>
	<rect x="80" y="60" opacity="0.5" width="5" height="5"/>
	<rect x="85" y="50" opacity="0.5" width="5" height="5"/>
	<rect x="80" y="25" opacity="0.5" width="5" height="5"/>
	<rect x="75" y="70" opacity="0.5" width="5" height="5"/>
	<rect x="75" y="65" opacity="0.5" width="5" height="5"/>
	<rect x="75" y="25" opacity="0.5" width="5" height="5"/>
	<rect x="70" y="85" opacity="0.5" width="5" height="5"/>
	<rect x="70" y="80" opacity="0.5" width="5" height="5"/>
	<rect x="70" y="75" opacity="0.5" width="5" height="5"/>
	<rect x="70" y="40" opacity="0.5" width="5" height="5"/>
	<rect x="70" y="30" opacity="0.5" width="5" height="5"/>
	<rect x="70" y="35" opacity="0.5" width="5" height="5"/>
	<rect x="70" y="25" opacity="0.5" width="5" height="5"/>
	<rect x="70" y="20" opacity="0.5" width="5" height="5"/>
	<rect x="65" y="15" opacity="0.5" width="5" height="5"/>
	<rect x="60" y="15" opacity="0.5" width="5" height="5"/>
	<rect x="55" y="30" opacity="0.5" width="5" height="5"/>
	<rect x="55" y="35" opacity="0.5" width="5" height="5"/>
	<rect x="55" y="25" opacity="0.5" width="5" height="5"/>
	<rect x="55" y="15" opacity="0.5" width="5" height="5"/>
	<rect x="55" y="20" opacity="0.5" width="5" height="5"/>
	<rect x="50" y="10" opacity="0.5" width="5" height="5"/>
	<rect x="45" y="10" opacity="0.5" width="5" height="5"/>
	<rect x="40" y="30" opacity="0.5" width="5" height="5"/>
	<rect x="40" y="35" opacity="0.5" width="5" height="5"/>
	<rect x="40" y="25" opacity="0.5" width="5" height="5"/>
	<rect x="40" y="15" opacity="0.5" width="5" height="5"/>
	<rect x="40" y="20" opacity="0.5" width="5" height="5"/>
	<rect x="35" y="85" opacity="0.5" width="5" height="5"/>
	<rect x="35" y="80" opacity="0.5" width="5" height="5"/>
	<rect x="35" y="25" opacity="0.5" width="5" height="5"/>
	<rect x="35" y="20" opacity="0.5" width="5" height="5"/>
	<rect x="30" y="75" opacity="0.5" width="5" height="5"/>
	<rect x="30" y="40" opacity="0.5" width="5" height="5"/>
	<rect x="30" y="50" opacity="0.5" width="5" height="5"/>
	<rect x="30" y="45" opacity="0.5" width="5" height="5"/>
	<rect x="30" y="15" opacity="0.5" width="5" height="5"/>
	<rect x="25" y="70" opacity="0.5" width="5" height="5"/>
	<rect x="25" y="30" opacity="0.5" width="5" height="5"/>
	<rect x="25" y="35" opacity="0.5" width="5" height="5"/>
	<rect x="25" y="45" opacity="0.5" width="5" height="5"/>
	<rect x="25" y="15" opacity="0.5" width="5" height="5"/>
	<rect x="20" y="65" opacity="0.5" width="5" height="5"/>
	<rect x="20" y="60" opacity="0.5" width="5" height="5"/>
	<rect x="20" y="40" opacity="0.5" width="5" height="5"/>
	<rect x="20" y="25" opacity="0.5" width="5" height="5"/>
	<rect x="20" y="20" opacity="0.5" width="5" height="5"/>
	<rect x="15" y="55" opacity="0.5" width="5" height="5"/>
	<rect x="15" y="40" opacity="0.5" width="5" height="5"/>
	<rect x="10" y="50" opacity="0.5" width="5" height="5"/>
	<rect x="10" y="45" opacity="0.5" width="5" height="5"/>
</g>
</svg>
